<svg width="100" height="100" viewBox="0 0 100 100" fill="none" xmlns="http://www.w3.org/2000/svg">
  <circle cx="50" cy="50" r="48" fill="#FFFFFF"/>
  <path fill-rule="evenodd" clip-rule="evenodd" d="M50 0C22.3858 0 0 22.3858 0 50C0 77.6142 22.3858 100 50 100C77.6142 100 100 77.6142 100 50C100 22.3858 77.6142 0 50 0ZM50 8C26.8172 8 8 26.8172 8 50C8 73.1828 26.8172 92 50 92C73.1828 92 92 73.1828 92 50C92 26.8172 73.1828 8 50 8Z" fill="#EAEAEA"/>
  <path d="M50 8V50L80.3109 65.1554C87.6118 59.6105 92 50.8113 92 41C92 26.8172 73.1828 8 50 8Z" fill="#3B82F6"/>
  <path d="M50 8H28C22.4772 8 18 12.4772 18 18V50H50V8Z" fill="#3498DB"/>
  <path d="M50 92V50L19.6891 34.8446C12.3882 40.3895 8 49.1887 8 59C8 73.1828 26.8172 92 50 92Z" fill="#E74C3C"/>
  <path d="M50 92H72C77.5228 92 82 87.5228 82 82V50H50V92Z" fill="#F1C40F"/>
  <path d="M18 50H50V92H28C22.4772 92 18 87.5228 18 82V50Z" fill="#2ECC71"/>
  <path d="M82 50H50V8H72C77.5228 8 82 12.4772 82 18V50Z" fill="#9B59B6"/>
  <circle cx="50" cy="50" r="10" fill="white" stroke="#EAEAEA" stroke-width="4"/>
</svg>
